<?xml version="1.0" encoding="utf-8"?>
<svg width="12" height="10" viewBox="0 0 12 10" fill="none" xmlns="http://www.w3.org/2000/svg">
<path d="M0.75 1.98C0.75 1.48 0.93 1.05 1.28 0.699999C1.64 0.339999 2.06 0.169999 2.56 0.169999C3.05 0.169999 3.48 0.349999 3.83 0.699999C4.18 1.06 4.36 1.48 4.36 1.98C4.36 2.48 4.18 2.91 3.83 3.26C3.48 3.62 3.05 3.79 2.56 3.79C2.06 3.79 1.63 3.61 1.28 3.26C0.93 2.91 0.75 2.48 0.75 1.98ZM1.63 1.98C1.63 2.24 1.72 2.46 1.9 2.65C2.09 2.84 2.31 2.93 2.57 2.93C2.83 2.93 3.05 2.84 3.24 2.65C3.43 2.46 3.52 2.24 3.52 1.98C3.52 1.72 3.43 1.5 3.24 1.31C3.05 1.12 2.83 1.03 2.57 1.03C2.31 1.03 2.09 1.12 1.9 1.31C1.72 1.49 1.63 1.72 1.63 1.98ZM5.52 6.4C5.52 7.17 5.73 7.85 6.16 8.45C6.38 8.76 6.69 9.01 7.09 9.2C7.48 9.38 7.93 9.48 8.43 9.48C9.89 9.48 10.81 8.92 11.18 7.81C11.22 7.67 11.2 7.53 11.12 7.4C11.04 7.27 10.93 7.2 10.79 7.17C10.65 7.13 10.51 7.15 10.39 7.24C10.27 7.32 10.19 7.43 10.16 7.58C10.16 7.59 10.16 7.6 10.15 7.63L10.13 7.7C10.02 7.89 9.87 8.04 9.68 8.15C9.37 8.34 8.96 8.43 8.45 8.43C8.14 8.43 7.86 8.38 7.62 8.27C7.22 8.1 6.94 7.8 6.77 7.38C6.66 7.11 6.6 6.78 6.6 6.41V3.19C6.6 3.04 6.61 2.89 6.63 2.74C6.67 2.36 6.82 2.01 7.08 1.7C7.37 1.35 7.83 1.18 8.46 1.18C8.98 1.18 9.39 1.27 9.69 1.45C9.89 1.57 10.04 1.72 10.14 1.9C10.15 1.92 10.15 1.95 10.16 1.98C10.17 2.01 10.17 2.03 10.17 2.04C10.21 2.18 10.29 2.28 10.4 2.34C10.52 2.41 10.65 2.42 10.8 2.39C10.94 2.36 11.05 2.28 11.13 2.16C11.21 2.04 11.23 1.91 11.19 1.76V1.75L11.11 1.52C11.06 1.41 10.97 1.26 10.83 1.09C10.7 0.909999 10.54 0.769999 10.38 0.649999C10.17 0.499999 9.9 0.38 9.56 0.27C9.22 0.17 8.85 0.119999 8.45 0.119999C7.94 0.119999 7.5 0.209999 7.1 0.389999C6.71 0.569999 6.4 0.809999 6.19 1.12C5.76 1.71 5.54 2.4 5.54 3.19V6.4H5.52Z" fill="white"/>
</svg>

