<?xml version="1.0" encoding="utf-8"?>
<svg width="16" height="20" viewBox="0 0 16 20" fill="none" xmlns="http://www.w3.org/2000/svg">
<path d="M0.560001 12.19C0.560001 11.31 0.800001 10.3 1.28 9.16C1.76 8.02 2.38 6.91 3.14 5.85C4.7 3.79 6.06 2.23 7.2 1.18L7.95 0.459999C8.2 0.719999 8.48 0.959999 8.78 1.18C9.19 1.6 9.82 2.29 10.66 3.27C11.5 4.25 12.23 5.12 12.83 5.92C13.54 6.93 14.15 8.02 14.64 9.17C15.13 10.32 15.38 11.33 15.38 12.2C15.38 13.2 15.19 14.15 14.8 15.06C14.41 15.97 13.89 16.76 13.23 17.42C12.57 18.08 11.78 18.61 10.86 19C9.94 19.39 8.97 19.59 7.95 19.59C6.95 19.59 6 19.4 5.09 19.02C4.18 18.64 3.39 18.13 2.73 17.47C2.07 16.82 1.54 16.03 1.15 15.12C0.760001 14.21 0.560001 13.23 0.560001 12.19ZM2.82 9.26C2.82 10.09 2.99 10.75 3.34 11.25C3.69 11.74 4.22 11.99 4.93 11.99C5.65 11.99 6.18 11.74 6.54 11.25C6.89 10.76 7.07 10.1 7.08 9.26C7.07 8.42 6.89 7.76 6.54 7.26C6.19 6.77 5.65 6.52 4.93 6.52C4.22 6.52 3.69 6.77 3.34 7.26C2.99 7.76 2.82 8.42 2.82 9.26ZM4.39 9.26C4.39 9.11 4.39 8.99 4.39 8.91C4.39 8.83 4.4 8.72 4.41 8.58C4.42 8.44 4.43 8.33 4.46 8.26C4.49 8.19 4.51 8.1 4.55 8.02C4.59 7.94 4.64 7.87 4.7 7.84C4.77 7.8 4.84 7.78 4.93 7.78C5.07 7.78 5.18 7.82 5.26 7.9C5.34 7.98 5.4 8.11 5.43 8.28C5.46 8.46 5.48 8.6 5.49 8.73C5.5 8.86 5.5 9.03 5.5 9.25C5.5 9.48 5.5 9.65 5.49 9.77C5.48 9.89 5.46 10.04 5.43 10.22C5.4 10.39 5.34 10.52 5.26 10.6C5.18 10.68 5.07 10.72 4.93 10.72C4.84 10.72 4.77 10.7 4.7 10.66C4.63 10.62 4.58 10.56 4.55 10.48C4.51 10.4 4.48 10.31 4.46 10.24C4.44 10.16 4.42 10.05 4.41 9.92C4.4 9.78 4.39 9.67 4.39 9.6C4.39 9.53 4.39 9.41 4.39 9.26ZM4.98 17.01H6.3L11.29 6.27H9.94L4.98 17.01ZM9.28 14.02C9.29 14.86 9.48 15.52 9.83 16.02C10.18 16.51 10.72 16.76 11.43 16.76C12.15 16.76 12.68 16.51 13.03 16.02C13.38 15.53 13.55 14.86 13.56 14.02C13.55 13.18 13.38 12.52 13.03 12.03C12.68 11.54 12.15 11.29 11.43 11.29C10.72 11.29 10.18 11.54 9.83 12.03C9.47 12.52 9.29 13.18 9.28 14.02ZM10.85 14.02C10.85 13.79 10.85 13.62 10.86 13.5C10.87 13.38 10.89 13.23 10.92 13.05C10.95 12.87 11.01 12.75 11.09 12.67C11.17 12.59 11.28 12.55 11.42 12.55C11.51 12.55 11.59 12.57 11.66 12.61C11.73 12.65 11.78 12.71 11.82 12.8C11.86 12.89 11.89 12.97 11.92 13.04C11.95 13.11 11.96 13.22 11.97 13.36L11.98 13.68V14.02C11.98 14.18 11.98 14.3 11.98 14.37L11.97 14.69L11.92 15.01L11.82 15.25L11.66 15.44L11.42 15.5C11.28 15.5 11.17 15.46 11.09 15.38C11.01 15.3 10.95 15.17 10.92 15C10.89 14.82 10.87 14.67 10.86 14.55C10.85 14.43 10.85 14.25 10.85 14.02Z" fill="white"/>
</svg>

