<?xml version="1.0" encoding="utf-8"?>
<svg width="24" height="14" viewBox="0 0 24 14" fill="none" xmlns="http://www.w3.org/2000/svg">
<path d="M0.0999985 8.97C0.0999985 9.21 0.189999 9.42 0.379999 9.59C0.539999 9.78 0.749999 9.87 1.01 9.87H15.7C15.99 9.87 16.23 9.97 16.43 10.17C16.63 10.37 16.73 10.62 16.73 10.91C16.73 11.2 16.63 11.44 16.43 11.63C16.23 11.82 15.99 11.92 15.69 11.92C15.4 11.92 15.15 11.82 14.96 11.63C14.8 11.45 14.6 11.37 14.36 11.37C14.11 11.37 13.9 11.46 13.72 11.63C13.54 11.8 13.45 12.01 13.45 12.24C13.45 12.49 13.54 12.7 13.73 12.87C14.29 13.42 14.95 13.7 15.69 13.7C16.47 13.7 17.14 13.43 17.7 12.89C18.26 12.35 18.53 11.7 18.53 10.92C18.53 10.14 18.25 9.48 17.69 8.92C17.13 8.36 16.46 8.08 15.69 8.08H1.01C0.759999 8.08 0.549998 8.17 0.369998 8.34C0.189998 8.51 0.0999985 8.72 0.0999985 8.97ZM0.0999985 5.69C0.0999985 5.92 0.189999 6.12 0.379999 6.3C0.549999 6.48 0.759999 6.56 1.01 6.56H21.05C21.83 6.56 22.5 6.29 23.06 5.74C23.62 5.2 23.9 4.54 23.9 3.77C23.9 3 23.62 2.33 23.06 1.78C22.5 1.23 21.83 0.950001 21.05 0.950001C20.28 0.950001 19.63 1.22 19.1 1.75C18.92 1.91 18.83 2.13 18.83 2.42C18.83 2.68 18.92 2.89 19.09 3.05C19.26 3.21 19.47 3.29 19.72 3.29C19.96 3.29 20.17 3.21 20.35 3.05C20.54 2.84 20.77 2.74 21.05 2.74C21.34 2.74 21.58 2.84 21.78 3.04C21.98 3.24 22.08 3.48 22.08 3.77C22.08 4.06 21.98 4.3 21.78 4.49C21.58 4.68 21.34 4.78 21.05 4.78H1.01C0.759999 4.78 0.549998 4.87 0.369998 5.04C0.189998 5.23 0.0999985 5.44 0.0999985 5.69Z" fill="white"/>
</svg>

